<svg width="198" height="60" viewBox="0 0 198 60" fill="none" xmlns="http://www.w3.org/2000/svg">
<path d="M12.24 25.68H8.16V44H3.56V25.68H0.96V21.96H3.56V20.4C3.56 17.8667 4.22667 16.0267 5.56 14.88C6.92 13.7067 9.04 13.12 11.92 13.12V16.92C10.5333 16.92 9.56 17.1867 9 17.72C8.44 18.2267 8.16 19.12 8.16 20.4V21.96H12.24V25.68ZM14.7613 32.88C14.7613 30.6667 15.2146 28.7067 16.1213 27C17.0546 25.2933 18.3079 23.9733 19.8813 23.04C21.4813 22.08 23.2413 21.6 25.1613 21.6C26.8946 21.6 28.4013 21.9467 29.6813 22.64C30.9879 23.3067 32.0279 24.1467 32.8013 25.16V21.96H37.4013V44H32.8013V40.72C32.0279 41.76 30.9746 42.6267 29.6413 43.32C28.3079 44.0133 26.7879 44.36 25.0813 44.36C23.1879 44.36 21.4546 43.88 19.8813 42.92C18.3079 41.9333 17.0546 40.5733 16.1213 38.84C15.2146 37.08 14.7613 35.0933 14.7613 32.88ZM32.8013 32.96C32.8013 31.44 32.4813 30.12 31.8413 29C31.2279 27.88 30.4146 27.0267 29.4013 26.44C28.3879 25.8533 27.2946 25.56 26.1213 25.56C24.9479 25.56 23.8546 25.8533 22.8413 26.44C21.8279 27 21.0013 27.84 20.3613 28.96C19.7479 30.0533 19.4413 31.36 19.4413 32.88C19.4413 34.4 19.7479 35.7333 20.3613 36.88C21.0013 38.0267 21.8279 38.9067 22.8413 39.52C23.8813 40.1067 24.9746 40.4 26.1213 40.4C27.2946 40.4 28.3879 40.1067 29.4013 39.52C30.4146 38.9333 31.2279 38.08 31.8413 36.96C32.4813 35.8133 32.8013 34.48 32.8013 32.96ZM30.9613 16.04L22.1213 20.4V17.04L30.9613 12.16V16.04ZM47.9506 25.24C48.724 24.1733 49.7773 23.3067 51.1106 22.64C52.4706 21.9467 53.9773 21.6 55.6306 21.6C57.5773 21.6 59.3373 22.0667 60.9106 23C62.484 23.9333 63.724 25.2667 64.6306 27C65.5373 28.7067 65.9906 30.6667 65.9906 32.88C65.9906 35.0933 65.5373 37.08 64.6306 38.84C63.724 40.5733 62.4706 41.9333 60.8706 42.92C59.2973 43.88 57.5506 44.36 55.6306 44.36C53.924 44.36 52.404 44.0267 51.0706 43.36C49.764 42.6933 48.724 41.84 47.9506 40.8V44H43.3906V14.4H47.9506V25.24ZM61.3506 32.88C61.3506 31.36 61.0306 30.0533 60.3906 28.96C59.7773 27.84 58.9506 27 57.9106 26.44C56.8973 25.8533 55.804 25.56 54.6306 25.56C53.484 25.56 52.3906 25.8533 51.3506 26.44C50.3373 27.0267 49.5106 27.88 48.8706 29C48.2573 30.12 47.9506 31.44 47.9506 32.96C47.9506 34.48 48.2573 35.8133 48.8706 36.96C49.5106 38.08 50.3373 38.9333 51.3506 39.52C52.3906 40.1067 53.484 40.4 54.6306 40.4C55.804 40.4 56.8973 40.1067 57.9106 39.52C58.9506 38.9067 59.7773 38.0267 60.3906 36.88C61.0306 35.7333 61.3506 34.4 61.3506 32.88ZM72.82 19.04C71.9933 19.04 71.3 18.76 70.74 18.2C70.18 17.64 69.9 16.9467 69.9 16.12C69.9 15.2933 70.18 14.6 70.74 14.04C71.3 13.48 71.9933 13.2 72.82 13.2C73.62 13.2 74.3 13.48 74.86 14.04C75.42 14.6 75.7 15.2933 75.7 16.12C75.7 16.9467 75.42 17.64 74.86 18.2C74.3 18.76 73.62 19.04 72.82 19.04ZM75.06 21.96V44H70.5V21.96H75.06ZM90.6069 44.36C88.5269 44.36 86.6469 43.8933 84.9669 42.96C83.2869 42 81.9669 40.6667 81.0069 38.96C80.0469 37.2267 79.5669 35.2267 79.5669 32.96C79.5669 30.72 80.0602 28.7333 81.0469 27C82.0335 25.2667 83.3802 23.9333 85.0869 23C86.7935 22.0667 88.7002 21.6 90.8069 21.6C92.9135 21.6 94.8202 22.0667 96.5269 23C98.2335 23.9333 99.5802 25.2667 100.567 27C101.554 28.7333 102.047 30.72 102.047 32.96C102.047 35.2 101.54 37.1867 100.527 38.92C99.5135 40.6533 98.1269 42 96.3669 42.96C94.6335 43.8933 92.7135 44.36 90.6069 44.36ZM90.6069 40.4C91.7802 40.4 92.8735 40.12 93.8869 39.56C94.9269 39 95.7669 38.16 96.4069 37.04C97.0469 35.92 97.3669 34.56 97.3669 32.96C97.3669 31.36 97.0602 30.0133 96.4469 28.92C95.8335 27.8 95.0202 26.96 94.0069 26.4C92.9935 25.84 91.9002 25.56 90.7269 25.56C89.5535 25.56 88.4602 25.84 87.4469 26.4C86.4602 26.96 85.6735 27.8 85.0869 28.92C84.5002 30.0133 84.2069 31.36 84.2069 32.96C84.2069 35.3333 84.8069 37.1733 86.0069 38.48C87.2335 39.76 88.7669 40.4 90.6069 40.4Z" fill="white"/>
<path d="M122.298 43.342C120.702 43.342 119.271 43.076 118.004 42.544C116.737 41.9867 115.737 41.2267 115.002 40.264C114.267 39.276 113.862 38.1487 113.786 36.882H117.358C117.459 37.9207 117.941 38.7693 118.802 39.428C119.689 40.0867 120.841 40.416 122.26 40.416C123.577 40.416 124.616 40.1247 125.376 39.542C126.136 38.9593 126.516 38.2247 126.516 37.338C126.516 36.426 126.111 35.7547 125.3 35.324C124.489 34.868 123.235 34.4247 121.538 33.994C119.993 33.5887 118.726 33.1833 117.738 32.778C116.775 32.3473 115.939 31.7267 115.23 30.916C114.546 30.08 114.204 28.9907 114.204 27.648C114.204 26.584 114.521 25.6087 115.154 24.722C115.787 23.8353 116.687 23.1387 117.852 22.632C119.017 22.1 120.347 21.834 121.842 21.834C124.147 21.834 126.009 22.4167 127.428 23.582C128.847 24.7473 129.607 26.3433 129.708 28.37H126.25C126.174 27.2807 125.731 26.4067 124.92 25.748C124.135 25.0893 123.071 24.76 121.728 24.76C120.487 24.76 119.499 25.026 118.764 25.558C118.029 26.09 117.662 26.7867 117.662 27.648C117.662 28.332 117.877 28.902 118.308 29.358C118.764 29.7887 119.321 30.1433 119.98 30.422C120.664 30.6753 121.601 30.9667 122.792 31.296C124.287 31.7013 125.503 32.1067 126.44 32.512C127.377 32.892 128.175 33.4747 128.834 34.26C129.518 35.0453 129.873 36.0713 129.898 37.338C129.898 38.478 129.581 39.504 128.948 40.416C128.315 41.328 127.415 42.05 126.25 42.582C125.11 43.0887 123.793 43.342 122.298 43.342ZM136.566 18.794C135.907 18.794 135.35 18.566 134.894 18.11C134.438 17.654 134.21 17.0967 134.21 16.438C134.21 15.7793 134.438 15.222 134.894 14.766C135.35 14.31 135.907 14.082 136.566 14.082C137.199 14.082 137.731 14.31 138.162 14.766C138.618 15.222 138.846 15.7793 138.846 16.438C138.846 17.0967 138.618 17.654 138.162 18.11C137.731 18.566 137.199 18.794 136.566 18.794ZM138.238 22.176V43H134.78V22.176H138.238ZM147.589 14.88V43H144.131V14.88H147.589ZM161.235 39.808L167.695 22.176H171.381L163.211 43H159.183L151.013 22.176H154.737L161.235 39.808ZM173.491 32.512C173.491 30.384 173.922 28.522 174.783 26.926C175.645 25.3047 176.823 24.0507 178.317 23.164C179.837 22.2773 181.522 21.834 183.371 21.834C185.195 21.834 186.779 22.2267 188.121 23.012C189.464 23.7973 190.465 24.7853 191.123 25.976V22.176H194.619V43H191.123V39.124C190.439 40.34 189.413 41.3533 188.045 42.164C186.703 42.9493 185.132 43.342 183.333 43.342C181.484 43.342 179.812 42.886 178.317 41.974C176.823 41.062 175.645 39.7827 174.783 38.136C173.922 36.4893 173.491 34.6147 173.491 32.512ZM191.123 32.55C191.123 30.9793 190.807 29.6113 190.173 28.446C189.54 27.2807 188.679 26.394 187.589 25.786C186.525 25.1527 185.347 24.836 184.055 24.836C182.763 24.836 181.585 25.14 180.521 25.748C179.457 26.356 178.609 27.2427 177.975 28.408C177.342 29.5733 177.025 30.9413 177.025 32.512C177.025 34.108 177.342 35.5013 177.975 36.692C178.609 37.8573 179.457 38.7567 180.521 39.39C181.585 39.998 182.763 40.302 184.055 40.302C185.347 40.302 186.525 39.998 187.589 39.39C188.679 38.7567 189.54 37.8573 190.173 36.692C190.807 35.5013 191.123 34.1207 191.123 32.55Z" fill="#B88900"/>
</svg>
