<svg width="30" height="70" viewBox="0 0 30 70" fill="none" xmlns="http://www.w3.org/2000/svg">
<path d="M4.984 50.568C4.68533 50.568 4.424 50.456 4.2 50.232C4.01333 50.008 3.92 49.7653 3.92 49.504C3.92 49.1307 4.01333 48.8507 4.2 48.664C4.424 48.4773 4.77867 48.2533 5.264 47.992L25.312 37.296V37.464L4.984 26.32C4.72267 26.1707 4.49867 26.0027 4.312 25.816C4.16267 25.6293 4.088 25.3493 4.088 24.976C4.088 24.6773 4.2 24.4347 4.424 24.248C4.648 24.024 4.94667 23.9307 5.32 23.968C5.46933 23.968 5.61867 24.0053 5.768 24.08C5.91733 24.1173 6.06667 24.1733 6.216 24.248L26.376 35.504C26.7867 35.728 27.1227 35.9707 27.384 36.232C27.6453 36.4933 27.776 36.8293 27.776 37.24C27.776 37.6507 27.6827 37.9867 27.496 38.248C27.3467 38.5093 27.048 38.752 26.6 38.976L5.992 50.232C5.84267 50.3067 5.67467 50.3813 5.488 50.456C5.30133 50.5307 5.13333 50.568 4.984 50.568Z" fill="white"/>
</svg>
