<svg width="52" height="70" viewBox="0 0 52 70" fill="none" xmlns="http://www.w3.org/2000/svg">
<path d="M24.248 50.736C24.0987 50.736 23.9307 50.6987 23.744 50.624C23.5573 50.5493 23.3893 50.4747 23.24 50.4L3.136 39.032C2.688 38.808 2.37067 38.5653 2.184 38.304C2.03467 38.0427 1.96 37.7067 1.96 37.296C1.96 36.8853 2.09067 36.5493 2.352 36.288C2.61333 36.0267 2.94933 35.784 3.36 35.56L23.016 24.416C23.1653 24.3413 23.3147 24.2853 23.464 24.248C23.6133 24.1733 23.7627 24.136 23.912 24.136C24.2853 24.0987 24.584 24.192 24.808 24.416C25.032 24.6027 25.144 24.8453 25.144 25.144C25.144 25.5173 25.0693 25.7973 24.92 25.984C24.7707 26.1707 24.5467 26.3387 24.248 26.488L4.424 37.52V37.352L23.968 48.16C24.4907 48.4213 24.8453 48.6453 25.032 48.832C25.2187 49.0187 25.312 49.2987 25.312 49.672C25.312 49.9333 25.2 50.176 24.976 50.4C24.7893 50.624 24.5467 50.736 24.248 50.736Z" fill="#B88900"/>
<path d="M33.4481 53.3399C33.1742 53.3981 32.9266 53.3553 32.7052 53.2115C32.4838 53.0677 32.344 52.8589 32.2858 52.585C32.2518 52.4253 32.2611 52.2444 32.3135 52.0424L40.9404 19.4004C41.0323 19.047 41.1459 18.7962 41.2815 18.6481C41.4398 18.4952 41.6445 18.392 41.8955 18.3387C42.1009 18.295 42.3119 18.3337 42.5285 18.4546C42.7678 18.5707 42.9191 18.7771 42.9821 19.0738C43.0258 19.2792 43.0238 19.4943 42.9762 19.7192L34.3566 52.3953C34.2502 52.6803 34.1292 52.8969 33.9937 53.045C33.8582 53.193 33.6763 53.2913 33.4481 53.3399Z" fill="#B88900"/>
</svg>
