<svg width="270" height="34" viewBox="0 0 270 34" fill="none" xmlns="http://www.w3.org/2000/svg">
<g clip-path="url(#clip0_2_33)">
<g filter="url(#filter0_d_2_33)">
<path d="M244.484 32.568C244.185 32.568 243.924 32.456 243.7 32.232C243.513 32.008 243.42 31.7653 243.42 31.504C243.42 31.1307 243.513 30.8507 243.7 30.664C243.924 30.4773 244.279 30.2533 244.764 29.992L264.812 19.296V19.464L244.484 8.32C244.223 8.17066 243.999 8.00266 243.812 7.816C243.663 7.62933 243.588 7.34933 243.588 6.976C243.588 6.67733 243.7 6.43466 243.924 6.248C244.148 6.024 244.447 5.93067 244.82 5.968C244.969 5.968 245.119 6.00533 245.268 6.08C245.417 6.11733 245.567 6.17333 245.716 6.248L265.876 17.504C266.287 17.728 266.623 17.9707 266.884 18.232C267.145 18.4933 267.276 18.8293 267.276 19.24C267.276 19.6507 267.183 19.9867 266.996 20.248C266.847 20.5093 266.548 20.752 266.1 20.976L245.492 32.232C245.343 32.3067 245.175 32.3813 244.988 32.456C244.801 32.5307 244.633 32.568 244.484 32.568Z" fill="white"/>
<path d="M53.74 14.68H49.66V33H45.06V14.68H42.46V10.96H45.06V9.4C45.06 6.86666 45.7267 5.02666 47.06 3.88C48.42 2.70667 50.54 2.12 53.42 2.12V5.92C52.0333 5.92 51.06 6.18667 50.5 6.72C49.94 7.22667 49.66 8.12 49.66 9.4V10.96H53.74V14.68ZM56.2613 21.88C56.2613 19.6667 56.7146 17.7067 57.6213 16C58.5546 14.2933 59.8079 12.9733 61.3813 12.04C62.9813 11.08 64.7413 10.6 66.6613 10.6C68.3946 10.6 69.9013 10.9467 71.1813 11.64C72.4879 12.3067 73.5279 13.1467 74.3013 14.16V10.96H78.9013V33H74.3013V29.72C73.5279 30.76 72.4746 31.6267 71.1413 32.32C69.8079 33.0133 68.2879 33.36 66.5813 33.36C64.6879 33.36 62.9546 32.88 61.3813 31.92C59.8079 30.9333 58.5546 29.5733 57.6213 27.84C56.7146 26.08 56.2613 24.0933 56.2613 21.88ZM74.3013 21.96C74.3013 20.44 73.9813 19.12 73.3413 18C72.7279 16.88 71.9146 16.0267 70.9013 15.44C69.8879 14.8533 68.7946 14.56 67.6213 14.56C66.4479 14.56 65.3546 14.8533 64.3413 15.44C63.3279 16 62.5013 16.84 61.8613 17.96C61.2479 19.0533 60.9413 20.36 60.9413 21.88C60.9413 23.4 61.2479 24.7333 61.8613 25.88C62.5013 27.0267 63.3279 27.9067 64.3413 28.52C65.3813 29.1067 66.4746 29.4 67.6213 29.4C68.7946 29.4 69.8879 29.1067 70.9013 28.52C71.9146 27.9333 72.7279 27.08 73.3413 25.96C73.9813 24.8133 74.3013 23.48 74.3013 21.96ZM72.4613 5.04L63.6213 9.4V6.04L72.4613 1.16V5.04ZM89.4506 14.24C90.224 13.1733 91.2773 12.3067 92.6106 11.64C93.9706 10.9467 95.4773 10.6 97.1306 10.6C99.0773 10.6 100.837 11.0667 102.411 12C103.984 12.9333 105.224 14.2667 106.131 16C107.037 17.7067 107.491 19.6667 107.491 21.88C107.491 24.0933 107.037 26.08 106.131 27.84C105.224 29.5733 103.971 30.9333 102.371 31.92C100.797 32.88 99.0506 33.36 97.1306 33.36C95.424 33.36 93.904 33.0267 92.5706 32.36C91.264 31.6933 90.224 30.84 89.4506 29.8V33H84.8906V3.4H89.4506V14.24ZM102.851 21.88C102.851 20.36 102.531 19.0533 101.891 17.96C101.277 16.84 100.451 16 99.4106 15.44C98.3973 14.8533 97.304 14.56 96.1306 14.56C94.984 14.56 93.8906 14.8533 92.8506 15.44C91.8373 16.0267 91.0106 16.88 90.3706 18C89.7573 19.12 89.4506 20.44 89.4506 21.96C89.4506 23.48 89.7573 24.8133 90.3706 25.96C91.0106 27.08 91.8373 27.9333 92.8506 28.52C93.8906 29.1067 94.984 29.4 96.1306 29.4C97.304 29.4 98.3973 29.1067 99.4106 28.52C100.451 27.9067 101.277 27.0267 101.891 25.88C102.531 24.7333 102.851 23.4 102.851 21.88ZM114.32 8.04C113.493 8.04 112.8 7.76 112.24 7.2C111.68 6.64 111.4 5.94667 111.4 5.12C111.4 4.29333 111.68 3.6 112.24 3.04C112.8 2.48 113.493 2.2 114.32 2.2C115.12 2.2 115.8 2.48 116.36 3.04C116.92 3.6 117.2 4.29333 117.2 5.12C117.2 5.94667 116.92 6.64 116.36 7.2C115.8 7.76 115.12 8.04 114.32 8.04ZM116.56 10.96V33H112V10.96H116.56ZM132.107 33.36C130.027 33.36 128.147 32.8933 126.467 31.96C124.787 31 123.467 29.6667 122.507 27.96C121.547 26.2267 121.067 24.2267 121.067 21.96C121.067 19.72 121.56 17.7333 122.547 16C123.534 14.2667 124.88 12.9333 126.587 12C128.294 11.0667 130.2 10.6 132.307 10.6C134.414 10.6 136.32 11.0667 138.027 12C139.734 12.9333 141.08 14.2667 142.067 16C143.054 17.7333 143.547 19.72 143.547 21.96C143.547 24.2 143.04 26.1867 142.027 27.92C141.014 29.6533 139.627 31 137.867 31.96C136.134 32.8933 134.214 33.36 132.107 33.36ZM132.107 29.4C133.28 29.4 134.374 29.12 135.387 28.56C136.427 28 137.267 27.16 137.907 26.04C138.547 24.92 138.867 23.56 138.867 21.96C138.867 20.36 138.56 19.0133 137.947 17.92C137.334 16.8 136.52 15.96 135.507 15.4C134.494 14.84 133.4 14.56 132.227 14.56C131.054 14.56 129.96 14.84 128.947 15.4C127.96 15.96 127.174 16.8 126.587 17.92C126 19.0133 125.707 20.36 125.707 21.96C125.707 24.3333 126.307 26.1733 127.507 27.48C128.734 28.76 130.267 29.4 132.107 29.4Z" fill="white"/>
<path d="M163.798 32.342C162.202 32.342 160.771 32.076 159.504 31.544C158.237 30.9867 157.237 30.2267 156.502 29.264C155.767 28.276 155.362 27.1487 155.286 25.882H158.858C158.959 26.9207 159.441 27.7693 160.302 28.428C161.189 29.0867 162.341 29.416 163.76 29.416C165.077 29.416 166.116 29.1247 166.876 28.542C167.636 27.9593 168.016 27.2247 168.016 26.338C168.016 25.426 167.611 24.7547 166.8 24.324C165.989 23.868 164.735 23.4247 163.038 22.994C161.493 22.5887 160.226 22.1833 159.238 21.778C158.275 21.3473 157.439 20.7267 156.73 19.916C156.046 19.08 155.704 17.9907 155.704 16.648C155.704 15.584 156.021 14.6087 156.654 13.722C157.287 12.8353 158.187 12.1387 159.352 11.632C160.517 11.1 161.847 10.834 163.342 10.834C165.647 10.834 167.509 11.4167 168.928 12.582C170.347 13.7473 171.107 15.3433 171.208 17.37H167.75C167.674 16.2807 167.231 15.4067 166.42 14.748C165.635 14.0893 164.571 13.76 163.228 13.76C161.987 13.76 160.999 14.026 160.264 14.558C159.529 15.09 159.162 15.7867 159.162 16.648C159.162 17.332 159.377 17.902 159.808 18.358C160.264 18.7887 160.821 19.1433 161.48 19.422C162.164 19.6753 163.101 19.9667 164.292 20.296C165.787 20.7013 167.003 21.1067 167.94 21.512C168.877 21.892 169.675 22.4747 170.334 23.26C171.018 24.0453 171.373 25.0713 171.398 26.338C171.398 27.478 171.081 28.504 170.448 29.416C169.815 30.328 168.915 31.05 167.75 31.582C166.61 32.0887 165.293 32.342 163.798 32.342ZM178.066 7.794C177.407 7.794 176.85 7.566 176.394 7.11C175.938 6.654 175.71 6.09666 175.71 5.438C175.71 4.77933 175.938 4.222 176.394 3.766C176.85 3.31 177.407 3.082 178.066 3.082C178.699 3.082 179.231 3.31 179.662 3.766C180.118 4.222 180.346 4.77933 180.346 5.438C180.346 6.09666 180.118 6.654 179.662 7.11C179.231 7.566 178.699 7.794 178.066 7.794ZM179.738 11.176V32H176.28V11.176H179.738ZM189.089 3.88V32H185.631V3.88H189.089ZM202.735 28.808L209.195 11.176H212.881L204.711 32H200.683L192.513 11.176H196.237L202.735 28.808ZM214.991 21.512C214.991 19.384 215.422 17.522 216.283 15.926C217.145 14.3047 218.323 13.0507 219.817 12.164C221.337 11.2773 223.022 10.834 224.871 10.834C226.695 10.834 228.279 11.2267 229.621 12.012C230.964 12.7973 231.965 13.7853 232.623 14.976V11.176H236.119V32H232.623V28.124C231.939 29.34 230.913 30.3533 229.545 31.164C228.203 31.9493 226.632 32.342 224.833 32.342C222.984 32.342 221.312 31.886 219.817 30.974C218.323 30.062 217.145 28.7827 216.283 27.136C215.422 25.4893 214.991 23.6147 214.991 21.512ZM232.623 21.55C232.623 19.9793 232.307 18.6113 231.673 17.446C231.04 16.2807 230.179 15.394 229.089 14.786C228.025 14.1527 226.847 13.836 225.555 13.836C224.263 13.836 223.085 14.14 222.021 14.748C220.957 15.356 220.109 16.2427 219.475 17.408C218.842 18.5733 218.525 19.9413 218.525 21.512C218.525 23.108 218.842 24.5013 219.475 25.692C220.109 26.8573 220.957 27.7567 222.021 28.39C223.085 28.998 224.263 29.302 225.555 29.302C226.847 29.302 228.025 28.998 229.089 28.39C230.179 27.7567 231.04 26.8573 231.673 25.692C232.307 24.5013 232.623 23.1207 232.623 21.55Z" fill="#B88900"/>
<path d="M24.748 32.736C24.5987 32.736 24.4307 32.6987 24.244 32.624C24.0573 32.5493 23.8893 32.4747 23.74 32.4L3.636 21.032C3.188 20.808 2.87067 20.5653 2.684 20.304C2.53467 20.0427 2.46 19.7067 2.46 19.296C2.46 18.8853 2.59067 18.5493 2.852 18.288C3.11333 18.0267 3.44933 17.784 3.86 17.56L23.516 6.416C23.6653 6.34133 23.8147 6.28533 23.964 6.248C24.1133 6.17333 24.2627 6.136 24.412 6.136C24.7853 6.09866 25.084 6.192 25.308 6.416C25.532 6.60267 25.644 6.84533 25.644 7.144C25.644 7.51733 25.5693 7.79733 25.42 7.984C25.2707 8.17067 25.0467 8.33867 24.748 8.488L4.924 19.52V19.352L24.468 30.16C24.9907 30.4213 25.3453 30.6453 25.532 30.832C25.7187 31.0187 25.812 31.2987 25.812 31.672C25.812 31.9333 25.7 32.176 25.476 32.4C25.2893 32.624 25.0467 32.736 24.748 32.736Z" fill="#B88900"/>
<path d="M29.1726 35.468C28.8987 35.5262 28.6511 35.4835 28.4297 35.3397C28.2083 35.1959 28.0685 34.9871 28.0102 34.7132C27.9763 34.5534 27.9855 34.3726 28.038 34.1706L36.6649 1.52862C36.7568 1.17514 36.8704 0.924355 37.0059 0.776279C37.1643 0.623352 37.369 0.520206 37.62 0.466842C37.8254 0.423181 38.0364 0.461826 38.253 0.58278C38.4923 0.698883 38.6436 0.905287 38.7066 1.20199C38.7503 1.4074 38.7483 1.62252 38.7007 1.84733L30.0811 34.5235C29.9747 34.8085 29.8537 35.0251 29.7182 35.1731C29.5827 35.3212 29.4008 35.4195 29.1726 35.468Z" fill="#B88900"/>
</g>
</g>
<defs>
<filter id="filter0_d_2_33" x="-1.54" y="0.277649" width="272.816" height="43.3941" filterUnits="userSpaceOnUse" color-interpolation-filters="sRGB">
<feFlood flood-opacity="0" result="BackgroundImageFix"/>
<feColorMatrix in="SourceAlpha" type="matrix" values="0 0 0 0 0 0 0 0 0 0 0 0 0 0 0 0 0 0 127 0" result="hardAlpha"/>
<feOffset dy="4"/>
<feGaussianBlur stdDeviation="2"/>
<feComposite in2="hardAlpha" operator="out"/>
<feColorMatrix type="matrix" values="0 0 0 0 0 0 0 0 0 0 0 0 0 0 0 0 0 0 0.25 0"/>
<feBlend mode="normal" in2="BackgroundImageFix" result="effect1_dropShadow_2_33"/>
<feBlend mode="normal" in="SourceGraphic" in2="effect1_dropShadow_2_33" result="shape"/>
</filter>
<clipPath id="clip0_2_33">
<rect width="270" height="34" fill="white"/>
</clipPath>
</defs>
</svg>
